# xmcd
#
# Track frame offsets:
# 150
# 6119
# 13678
# 32080
# 54505
# 71263
# 81601
# 93918
# 112324
# 127584
# 138466
# 154438
# 164908
# 182432
# 196910
# 217622
# 238894
# 275602
# 288476
# 313509
# 333591
#
# Disc length: 4714 seconds
#
#
# Revision: 0
# Processed by: cddbd v1.5.1PL0 Copyright (c) Steve Scherf et al.
# Submitted via: FreeRIP 2.942 
#
DISCID=31126815
DTITLE=KAOMA - A LAMBADA ESTA DE VOLTA
DYEAR=2002
DGENRE=LAMBADA
TTITLE0=ABERTURA
TTITLE1=INTRODUÇÃO
TTITLE2=BALANÇÊ
TTITLE3=LAMBA CARIBE/LAMBAMOUR
TTITLE4=BALANCE COM BB
TTITLE5=MADMOSELLE
TTITLE6=AI, AI, AMOR
TTITLE7=COLÔMBIA
TTITLE8=DANÇANDO LAMBADA
TTITLE9=LAMBAREGGAE
TTITLE10=PRETA/BEIJINHO NA BOCA
TTITLE11=LORINHA
TTITLE12=JETONS
TTITLE13=CHORANDO SE FOI
TTITLE14=BABY
TTITLE15=USTED NO SABE
TTITLE16=IPITIPITI/VEM VER/TCHUCA
TTITLE17=OI, OI, OI
TTITLE18=POUT-PORRI LAMBABREGA
TTITLE19=VÔO AO CARIBE
TTITLE20=UÁ MANDÔ
EXTD=
EXTT0=
EXTT1=
EXTT2=
EXTT3=
EXTT4=
EXTT5=
EXTT6=
EXTT7=
EXTT8=
EXTT9=
EXTT10=
EXTT11=
EXTT12=
EXTT13=
EXTT14=
EXTT15=
EXTT16=
EXTT17=
EXTT18=
EXTT19=
EXTT20=
PLAYORDER=
